<?xml version="1.0" encoding="UTF-8"?>
<!DOCTYPE svg PUBLIC "-//W3C//DTD SVG 1.1//EN" "http://www.w3.org/Graphics/SVG/1.1/DTD/svg11.dtd">
<svg xmlns="http://www.w3.org/2000/svg" version="1.1" xmlns:xlink="http://www.w3.org/1999/xlink" width="15.185678" height="40.76804">
  <path d="M 12.049402,3.5296 C 12.353762,6.65586 10.029582,9.1859 7.9717515,11.23109 7.0368715,12.12825 7.8167915,11.37928 7.3280615,11.82539 7.2259115,11.34576 7.0295015,10.09382 7.0478515,9.71496 7.1783415,7.02106 9.3676815,3.12749 11.285722,1.69142 11.594632,2.26813 11.849352,2.31453 12.049402,3.5296 z M 12.700402,19.67163 C 11.467872,18.76567 9.8500415,18.52819 8.3664015,18.78662 8.1750615,17.53196 7.9837315,16.2773 7.7923915,15.02264 10.143432,12.6936 12.698982,9.99075 12.833462,6.48357 12.892212,4.25163 12.557212,1.81222 11.154712,0 9.4545715,0.12823 8.2555115,2.15596 7.3531115,3.4165 5.8642015,6.087 6.2117015,9.33342 6.7830715,12.21296 5.9736815,13.16468 4.8535415,13.9564 4.0557015,14.94676 1.6996015,17.25546 -0.3527685,20.37701 0.0510615,23.82511 0.2344215,27.1591 2.6404915,30.25948 5.9212815,31.05243 7.1669815,31.36665 8.4852315,31.39764 9.7454015,31.15062 9.9653415,33.40071 10.772462,35.78028 9.8379015,37.96372 9.1371615,39.5623 7.0503515,40.96843 5.5054015,40.15562 4.9060315,39.84029 5.3917315,40.10486 5.0273515,39.90435 6.0972115,39.64704 7.0270015,38.86785 7.2874215,38.33943 8.1252015,36.87523 6.8875815,34.70024 5.1320215,34.98062 2.8700215,35.0274 1.9415615,38.1214 3.3964015,39.66562 4.7431915,41.18601 7.2294015,40.97781 8.8265115,39.98363 10.639482,38.80368 10.865722,36.44044 10.658652,34.42163 10.589172,33.74423 10.256322,31.75178 10.215122,31.0348 10.912342,30.78644 10.424382,30.97572 11.407902,30.58628 14.068122,29.53292 15.765412,26.32746 15.002032,23.4635 14.683842,21.99468 13.958342,20.54981 12.700402,19.67163 z M 13.261402,25.42865 C 13.475442,27.42034 12.207692,29.75012 10.182382,30.38855 10.046122,29.59358 10.010202,29.37774 9.9194015,28.91442 9.4371815,26.4537 9.1754015,23.92655 8.8034015,21.43262 10.428322,21.26457 12.261032,21.97584 12.826302,23.61738 13.070032,24.19376 13.168562,24.81412 13.261402,25.42865 z M 8.1124015,30.62463 C 5.5682615,30.7661 3.1128615,29.02965 2.4781315,26.54428 1.7291215,24.39112 1.9498215,21.91402 3.2988015,20.03954 4.4139415,18.33764 5.9053115,16.93517 7.3274015,15.49662 7.5104015,16.62395 7.6934015,17.75127 7.8763915,18.8786 4.8857615,19.66074 2.8717915,23.60386 4.6614015,26.32962 5.1938415,27.09388 6.6378715,28.55277 7.4269015,27.96362 6.3249215,27.28125 5.4235815,26.10518 5.6174115,24.73702 5.5352815,23.45456 6.9872615,21.82641 8.2687015,21.53869 8.7071115,24.40794 9.2099815,27.61238 9.6484015,30.48163 9.1430115,30.58165 8.6272515,30.6246 8.1124015,30.62463 z"/>
 </svg>